HIERARCHY
ROOT Hips
{
	OFFSET -0.001795 -0.223333 0.028219
	CHANNELS 6 Xposition Yposition Zposition Zrotation Yrotation Xrotation 
	JOINT LeftUpLeg
	{
		OFFSET 0.069520 -0.091406 -0.006815
		CHANNELS 3 Zrotation Yrotation Xrotation
		JOINT LeftLeg
		{
			OFFSET 0.034277 -0.375199 -0.004496
			CHANNELS 3 Zrotation Yrotation Xrotation
			JOINT LeftFoot
			{
				OFFSET -0.013596 -0.397961 -0.043693
				CHANNELS 3 Zrotation Yrotation Xrotation
				JOINT LeftToe
				{
					OFFSET 0.026358 -0.055791 0.119288
					CHANNELS 3 Zrotation Yrotation Xrotation
					End Site
					{
						OFFSET 0.000000 0.000000 0.000000
					}
				}
			}
		}
	}
	JOINT RightUpLeg
	{
		OFFSET -0.067670 -0.090522 -0.004320
		CHANNELS 3 Zrotation Yrotation Xrotation
		JOINT RightLeg
		{
			OFFSET -0.038290 -0.382569 -0.008850
			CHANNELS 3 Zrotation Yrotation Xrotation
			JOINT RightFoot
			{
				OFFSET 0.015774 -0.398415 -0.042312
				CHANNELS 3 Zrotation Yrotation Xrotation
				JOINT RightToe
				{
					OFFSET -0.025372 -0.048144 0.123348
					CHANNELS 3 Zrotation Yrotation Xrotation
					End Site
					{
						OFFSET 0.000000 0.000000 0.000000
					}
				}
			}
		}
	}
	JOINT Spine
	{
		OFFSET -0.002533 0.108963 -0.026696
		CHANNELS 3 Zrotation Yrotation Xrotation
		JOINT Spine1
		{
			OFFSET 0.005487 0.135180 0.001092
			CHANNELS 3 Zrotation Yrotation Xrotation
			JOINT Spine2
			{
				OFFSET 0.001457 0.052922 0.025425
				CHANNELS 3 Zrotation Yrotation Xrotation
				JOINT Neck
				{
					OFFSET -0.002778 0.213870 -0.042857
					CHANNELS 3 Zrotation Yrotation Xrotation
					JOINT Head
					{
						OFFSET 0.005152 0.064970 0.051349
						CHANNELS 3 Zrotation Yrotation Xrotation
						End Site
						{
							OFFSET 0.000000 0.000000 0.000000
						}
					}
				}
				JOINT LeftShoulder
				{
					OFFSET 0.078845 0.121749 -0.034090
					CHANNELS 3 Zrotation Yrotation Xrotation
					JOINT LeftArm
					{
						OFFSET 0.090977 0.030469 -0.008868
						CHANNELS 3 Zrotation Yrotation Xrotation
						JOINT LeftForeArm
						{
							OFFSET 0.259612 -0.012772 -0.027456
							CHANNELS 3 Zrotation Yrotation Xrotation
							JOINT LeftHand
							{
								OFFSET 0.249234 0.008986 -0.001171
								CHANNELS 3 Zrotation Yrotation Xrotation
								End Site
								{
									OFFSET 0.000000 0.000000 0.000000
								}
							}
						}
					}
				}
				JOINT RightShoulder
				{
					OFFSET -0.081759 0.118833 -0.038615
					CHANNELS 3 Zrotation Yrotation Xrotation
					JOINT RightArm
					{
						OFFSET -0.096012 0.032551 -0.009143
						CHANNELS 3 Zrotation Yrotation Xrotation
						JOINT RightForeArm
						{
							OFFSET -0.253742 -0.013329 -0.021401
							CHANNELS 3 Zrotation Yrotation Xrotation
							JOINT RightHand
							{
								OFFSET -0.255298 0.007772 -0.005559
								CHANNELS 3 Zrotation Yrotation Xrotation
								End Site
								{
									OFFSET 0.000000 0.000000 0.000000
								}
							}
						}
					}
				}
			}
		}
	}
}
MOTION
Frames: 8
Frame Time: 0.050000
0.060147 0.962006 -0.087848 -1.879618 -0.180096 -4.104234 10.623565 -0.040737 7.887877 -1.672819 0.283979 -5.083286 -5.779096 0.177979 23.585512 0.000000 0.000000 0.000000 -4.201296 -0.548387 9.529724 -0.173278 -0.095022 -2.763347 -7.307436 -18.899695 23.436923 0.000000 0.000000 0.000000 -7.366270 -0.033520 0.298430 8.904795 -2.067316 -19.821381 0.296830 -2.829882 29.984463 -1.728812 1.838169 -18.313954 0.000000 0.000000 0.000000 -2.411693 7.474186 -2.888472 -26.538820 -26.559739 0.269097 59.903924 -48.024667 -24.481601 0.000000 0.000000 0.000000 -6.710572 3.095695 1.284742 40.689879 10.922004 -2.761787 -72.985019 57.423654 -40.149490 0.000000 0.000000 0.000000 
0.059315 0.962601 -0.088023 -1.844285 0.776449 -3.615677 10.643895 -0.093901 7.316013 -1.673068 0.289109 -5.618334 -6.130140 0.110566 24.221320 0.000000 0.000000 0.000000 -3.958855 -0.590626 9.497306 -0.189692 -0.114300 -3.268486 -7.907598 -19.630800 23.660847 0.000000 0.000000 0.000000 -7.493179 -0.023604 0.472843 8.978914 -1.985233 -20.585453 0.474941 -3.171664 30.078112 -1.136262 1.502864 -19.640527 0.000000 0.000000 0.000000 -3.589873 8.141052 -3.252670 -29.997285 -29.259552 1.190280 65.796619 -42.947088 -24.091884 0.000000 0.000000 0.000000 -5.971968 2.437657 1.056558 44.173221 12.353593 -2.450968 -77.798574 52.353556 -38.594860 0.000000 0.000000 0.000000 
0.058926 0.963784 -0.087848 -1.603486 1.533330 -3.009146 10.357081 -0.115055 6.530835 -1.676424 0.291645 -5.973899 -6.290070 0.424762 25.269991 0.000000 0.000000 0.000000 -3.920950 -0.583550 9.162048 -0.342779 -0.119738 -3.689582 -8.524425 -20.394131 24.419272 0.000000 0.000000 0.000000 -7.424536 -0.013556 0.468994 8.946513 -1.917390 -20.961868 0.347838 -3.326587 29.763627 -0.824777 1.377267 -20.571378 0.000000 0.000000 0.000000 -4.957043 7.878744 -3.277560 -34.963628 -31.819599 2.562162 71.671373 -37.115848 -22.546921 0.000000 0.000000 0.000000 -5.159288 1.691381 0.796151 48.712041 13.673848 -2.009669 -83.116276 46.453270 -36.092991 0.000000 0.000000 0.000000 
0.058794 0.964450 -0.087565 -1.546491 1.811442 -2.549972 10.397084 -0.137822 6.166090 -1.841080 0.305520 -6.393666 -6.453217 0.462022 25.815941 0.000000 0.000000 0.000000 -3.734027 -0.601892 9.138694 -0.530350 -0.134910 -4.353116 -8.794757 -20.727090 24.611812 0.000000 0.000000 0.000000 -7.193065 -0.006575 0.367945 8.779230 -1.844237 -21.122174 0.503211 -3.309636 29.243702 -0.403481 1.193237 -21.835827 0.000000 0.000000 0.000000 -5.940685 7.699390 -3.309922 -39.029945 -33.261568 3.748252 74.717449 -33.237170 -20.817942 0.000000 0.000000 0.000000 -4.657740 1.724240 0.782084 51.661039 15.323313 -1.256114 -85.380258 41.031351 -32.077764 0.000000 0.000000 0.000000 
0.058643 0.964917 -0.087612 -1.342800 1.514898 -2.174331 10.109249 -0.115128 5.967243 -1.903056 0.313927 -6.635979 -6.032615 1.024262 26.032532 0.000000 0.000000 0.000000 -3.731227 -0.560790 8.720922 -0.654446 -0.122232 -4.267425 -8.985946 -21.032545 24.135690 0.000000 0.000000 0.000000 -6.981033 0.009826 0.643816 8.412064 -1.650487 -22.026975 0.554938 -3.470443 29.668165 -0.383356 1.198184 -23.531667 0.000000 0.000000 0.000000 -6.231536 8.346144 -3.595302 -42.449432 -33.277937 4.391654 76.598151 -32.384179 -20.422468 0.000000 0.000000 0.000000 -4.545943 0.858233 0.528897 53.988584 17.238687 -0.449462 -84.762860 37.155324 -28.082855 0.000000 0.000000 0.000000 
0.058291 0.964448 -0.087872 -1.293503 1.403994 -1.670143 10.215193 -0.129224 5.586796 -1.936448 0.317126 -6.712071 -6.414320 0.338216 25.615094 0.000000 0.000000 0.000000 -3.670315 -0.532092 8.343309 -0.903265 -0.124930 -4.690108 -8.898588 -20.914059 24.235053 0.000000 0.000000 0.000000 -6.897077 0.011253 0.115797 8.359624 -1.634674 -22.002498 0.322314 -3.804072 29.818328 -0.720859 1.375041 -24.342271 0.000000 0.000000 0.000000 -6.494566 8.891642 -3.837455 -44.485250 -33.046758 4.741314 75.843251 -32.422961 -19.831836 0.000000 0.000000 0.000000 -4.133732 0.614523 0.451722 55.300471 18.690857 0.209967 -84.675376 34.892021 -26.024483 0.000000 0.000000 0.000000 
0.057581 0.964010 -0.088255 -1.155035 0.993552 -1.485216 10.109191 -0.111153 5.529645 -1.619382 0.300934 -6.518061 -6.926873 -0.685456 24.940652 0.000000 0.000000 0.000000 -3.698503 -0.496511 8.032703 -0.994092 -0.108908 -4.479321 -8.808718 -20.849763 23.463568 0.000000 0.000000 0.000000 -6.780141 0.020848 0.273143 8.102731 -1.530891 -22.392193 0.257555 -4.124405 30.069241 -0.669895 1.263887 -24.926768 0.000000 0.000000 0.000000 -6.812321 9.530306 -4.114254 -45.473865 -31.871480 4.460654 74.242319 -31.895124 -18.492721 0.000000 0.000000 0.000000 -3.461753 -0.165393 0.189239 56.430171 20.266181 0.892403 -84.014494 33.801752 -24.851549 0.000000 0.000000 0.000000 
0.056580 0.963221 -0.088635 -1.118777 0.909918 -1.310353 10.138320 -0.113901 5.274730 -1.327550 0.275928 -6.016623 -7.375845 -1.764735 23.840724 0.000000 0.000000 0.000000 -3.511413 -0.492614 7.796292 -1.278813 -0.089584 -4.482587 -8.883447 -20.966034 23.265462 0.000000 0.000000 0.000000 -6.750141 0.018803 -0.070055 8.131753 -1.541491 -22.354130 -0.011156 -4.621967 30.430867 -0.905660 1.328837 -25.482248 0.000000 0.000000 0.000000 -7.106925 10.526348 -4.553349 -46.747747 -31.181908 4.432176 72.149554 -32.089946 -17.552678 0.000000 0.000000 0.000000 -2.942350 -1.106475 -0.133539 58.055030 22.032686 1.758519 -83.550932 33.279870 -24.215866 0.000000 0.000000 0.000000 
